# xmcd
#
# Track frame offsets: 
#        150
#        24838
#        44746
#        70665
#        86250
#        106263
#        129544
#        153420
#
# Disc length: 2291 seconds
#
# Revision: 0
# Processed by: cddbd v1.5.2PL0 Copyright (c) Steve Scherf et al.
# Submitted via: ExactAudioCopyFreeDBPlugin 1.0
#
DISCID=5b08f108
DTITLE=Tomorrow's Edition - Tomorrow's Edition - A Song For Everyone
DYEAR=1982
DGENRE=Soul
TTITLE0=A Song For Everyone
TTITLE1=Believe In Yourself
TTITLE2=In The Grooves
TTITLE3=Walk On The Wild Side
TTITLE4=U Turn Me On
TTITLE5=Have A Good Time
TTITLE6=Part Time Love
TTITLE7=Everybody Smiles
EXTD=
EXTT0=
EXTT1=
EXTT2=
EXTT3=
EXTT4=
EXTT5=
EXTT6=
EXTT7=
PLAYORDER=
